<?xml version="1.0" standalone="no"?>
<!DOCTYPE svg PUBLIC "-//W3C//DTD SVG 20010904//EN"
 "http://www.w3.org/TR/2001/REC-SVG-20010904/DTD/svg10.dtd">
<svg version="1.0" xmlns="http://www.w3.org/2000/svg"
 width="200.000000pt" height="200.000000pt" viewBox="0 0 200.000000 200.000000"
 preserveAspectRatio="xMidYMid meet">

<g transform="translate(0.000000,200.000000) scale(0.100000,-0.100000)"
fill="#000000" stroke="none">
<path d="M818 1960 c-434 -94 -738 -479 -738 -934 1 -437 287 -809 710 -923
103 -28 339 -25 450 5 394 107 671 454 697 874 16 269 -95 549 -293 739 -87
83 -142 120 -257 174 -174 82 -381 105 -569 65z m-174 -436 c80 -65 146 -122
146 -127 0 -5 -15 -30 -33 -56 -75 -106 -160 -294 -186 -411 -26 -121 -29
-140 -22 -144 4 -3 27 0 50 5 24 5 45 8 46 7 7 -7 -20 -178 -28 -178 -5 0 -26
13 -46 29 -20 16 -59 40 -87 55 l-51 26 -28 101 -28 100 49 70 c93 133 86 101
69 315 -27 357 -26 337 -11 331 8 -3 80 -59 160 -123z m862 59 c-3 -38 -13
-155 -22 -262 l-16 -193 41 -57 c23 -31 55 -75 72 -98 l30 -43 -36 -102 c-19
-55 -36 -102 -37 -103 -2 -2 -30 -15 -63 -31 -117 -55 -255 -221 -304 -367
l-18 -52 -160 -3 -159 -2 -23 54 -22 54 20 78 c56 220 180 483 283 600 17 19
29 37 26 39 -3 3 -30 0 -62 -6 -31 -7 -59 -9 -63 -6 -8 9 79 177 125 239 46
63 93 106 232 213 57 44 113 88 124 97 34 28 38 22 32 -49z"/>
</g>
</svg>
